name processed_emg_signals
nRows=30
nColumns=7
 
endheader
time	RGLTMED	RRF	RADDLONG	RST	RTA	RGM
1.1251999999999993	0.0059749050643448	0.0152775269734716	0.1372631497157302	0.013737219239874	0.0226957302631934	0.0239175874263348
1.1351999999999993	0.0059336213563181	0.0151824144176143	0.1370021356144155	0.0137243090603555	0.0226666196036321	0.0238848475710438
1.145199999999999	0.0058936459370384	0.0150876261168299	0.1367202225284992	0.013710542574306	0.0226328208983403	0.0238506781913457
1.1551999999999991	0.0058550180230596	0.0149932688969371	0.1364179330641718	0.0136959323906181	0.0225944640460929	0.0238151656662515
1.1651999999999991	0.0058177743470738	0.0148994482742494	0.1360957940846208	0.0136804919519808	0.0225516834775703	0.0237783952950774
1.1751999999999991	0.0057819491693898	0.0148062683777906	0.1357543368226393	0.0136642356315827	0.0225046179423533	0.023740451379855
1.1851999999999991	0.0057475742926474	0.0147138318721504	0.1353940969608948	0.0136471788261392	0.0224534102848018	0.023701417307023
1.1951999999999992	0.0057146790796191	0.0146222398809101	0.1350156146764095	0.0136293380446984	0.0223982072094564	0.0236613756278395
1.2051999999999992	0.0056832904739457	0.0145315919105738	0.1346194346463257	0.0136107309926407	0.0223391590365814	0.023620408136926
1.2151999999999992	0.0056534330236488	0.0144419857749457	0.1342061060126782	0.0135913766502452	0.0222764194484868	0.023578595948334
1.2251999999999992	0.0056251289072564	0.0143535175199014	0.1337761823046331	0.0135712953451858	0.0222101452273403	0.0235360195685122
1.2351999999999992	0.0055983979623706	0.0142662813485029	0.1333302213174492	0.0135505088183238	0.0221404959852785	0.0234927589655271
1.2451999999999992	0.0055732577164962	0.0141803695464108	0.1328687849482802	0.0135290402821973	0.0220676338877024	0.0234488936338703
1.2551999999999992	0.0055497234199354	0.0140958724075664	0.132392438989832	0.0135069144716335	0.0219917233706603	0.0234045026541693
1.2651999999999992	0.0055278080805458	0.0140128781601477	0.1319017528837172	0.013484157685946	0.0219129308531951	0.0233596647471073
1.2751999999999992	0.0055075225001472	0.0139314728928421	0.131397299436083	0.013460797822216	0.0218314244454923	0.0233144583208504
1.285199999999999	0.0054888753123624	0.0138517404815071	0.1308796544986996	0.013436864399206	0.0217473736536223	0.0232689615112764
1.295199999999999	0.0054718730216793	0.0137737625162969	0.1303493966191472	0.0134123885715344	0.0216609490816401	0.02322325221432
1.305199999999999	0.0054565200435416	0.01369761822934	0.1298071066639153	0.0133874031338457	0.0215723221317916	0.0231774081098053
1.315199999999999	0.005442818745289	0.0136233844230615	0.129253367418203	0.0133619425148349	0.0214816647035807	0.023131506676209
1.325199999999999	0.0054307694877906	0.013551135399273	0.1286887631660892	0.0133360427610991	0.0213891488924777	0.0230856251958698
1.335199999999999	0.0054203706676304	0.0134809428891833	0.1281138792546026	0.0133097415108923	0.0212949466890768	0.0230398407502125
1.345199999999999	0.0054116187597274	0.0134128759845149	0.1275293016450475	0.0132830779579691	0.0211992296795566	0.0229942302046132
1.355199999999999	0.0054045083602869	0.0133470010699402	0.1269356164547501	0.0132560928058201	0.0211021687483375	0.0229488701825861
1.365199999999999	0.0053990322299897	0.0132833817570768	0.1263334094922319	0.013228828212704	0.0210039337838707	0.0229038370290401
1.375199999999999	0.0053951813373376	0.0132220788203106	0.1257232657887482	0.0132013277279565	0.0209046933885136	0.0228592067624451
1.385199999999999	0.0053929449020779	0.0131631501347342	0.1251057691290909	0.0131736362200941	0.02080461459345	0.0228150550158729
1.395199999999999	0.0053923104386519	0.0131066506165059	0.1244815015844933	0.0131457997972357	0.0207038625796017	0.0227714569670376
1.4051999999999991	0.0053932637996258	0.0130526321659377	0.1238510430503855	0.0131178657203583	0.0206026004054439	0.0227284872576338
1.4151999999999991	0.0053957892190732	0.0130011436136082	0.1232149707916623	0.0130898823099049	0.0205009887425956	0.0226862199024275
